<?xml version="1.0" standalone="no"?><!DOCTYPE svg PUBLIC "-//W3C//DTD SVG 1.1//EN" "http://www.w3.org/Graphics/SVG/1.1/DTD/svg11.dtd"><svg t="1703257473877" class="icon" viewBox="0 0 1024 1024" version="1.1" xmlns="http://www.w3.org/2000/svg" p-id="10048" xmlns:xlink="http://www.w3.org/1999/xlink" width="200" height="200"><path d="M874.2656 160.30208c-129.44896 0-214.09792-28.06784-312.064-103.80288l-39.6288-30.26944-39.51616 30.38208C385.19296 132.1216 300.544 160.30208 170.5472 160.30208H105.70752v369.19808c0 59.21792 23.66976 132.85888 66.70848 207.38048l4.18304-2.42176-4.18304 2.42176c0.22016 0.3328 1.32096 2.31424 2.9696 5.17632 4.18304 7.15264 11.008 19.26656 13.2096 22.89664l3.63008 5.8368c6.38464 9.91232 13.2096 19.15392 23.55712 31.9232l5.1712 6.38464 38.74304-47.88736-5.28384-6.38464a282.9056 282.9056 0 0 1-18.60096-25.09824l-2.64192-4.17792c-2.5344-4.4032-5.06368-8.8064-7.59296-13.10208a843.4688 843.4688 0 0 1-7.81312-13.64992c-35.88608-61.85984-56.46848-123.61728-56.46848-169.2928V215.8848c71.33184-0.88064 150.8096-10.12736 205.52192-28.72832 52.94592-18.05312 102.58944-45.24032 155.86816-85.5296 53.38624 40.28928 103.02976 67.58912 155.76064 85.5296 54.59456 18.60096 128.7424 27.73504 199.73632 28.6208v313.50272c0 72.86784-43.91936 169.84576-114.69824 252.9536-72.98048 85.8624-172.76416 152.51456-241.01376 152.51456-52.8384 0-121.856-27.19232-179.97824-78.48448l-6.16448-5.504-40.3968 41.66144 6.16448 5.504c72.09984 63.95392 148.16256 97.74592 220.15488 97.74592 47.00672 0 96.86528-15.51872 148.16256-46.22848 46.44864-27.84768 92.57472-67.584 133.41184-115.03104 39.84896-46.34112 73.52832-98.41152 97.09056-150.58432 24.76544-54.59968 37.86752-108.09344 37.86752-154.43456V160.30208h-64.51712z" p-id="10049" fill="#8a8a8a"></path><path d="M786.64704 360.52992l-44.19072-37.0944-254.56128 311.6288-184.82176-168.91392-41.82528 40.22784 235.01312 220.2624 290.38592-366.11072z" p-id="10050" fill="#8a8a8a"></path></svg>