<?xml version="1.0" standalone="no"?><!DOCTYPE svg PUBLIC "-//W3C//DTD SVG 1.1//EN" "http://www.w3.org/Graphics/SVG/1.1/DTD/svg11.dtd"><svg t="1703257252050" class="icon" viewBox="0 0 1024 1024" version="1.1" xmlns="http://www.w3.org/2000/svg" p-id="5319" xmlns:xlink="http://www.w3.org/1999/xlink" width="200" height="200"><path d="M888.018 234.854L533.97 588.765c-12.5 12.495-32.76 12.49-45.255-0.009a32.238 32.238 0 0 1-0.067-0.067L136.49 234.29A31.886 31.886 0 0 0 128 256v512c0 17.673 14.327 32 32 32h704c17.673 0 32-14.327 32-32V256a31.878 31.878 0 0 0-7.982-21.146zM128 160h768c35.346 0 64 28.654 64 64v576c0 35.346-28.654 64-64 64H128c-35.346 0-64-28.654-64-64V224c0-35.346 28.654-64 64-64z m663.255 81.106a8 8 0 0 0-5.643-13.657l-547.423-0.87a8 8 0 0 0-5.688 13.638l273.226 274.964 0.017 0.017a8 8 0 0 0 11.313 0.002l274.198-274.094z" fill="#bfbfbf" p-id="5320"></path></svg>