<?xml version="1.0" standalone="no"?><!DOCTYPE svg PUBLIC "-//W3C//DTD SVG 1.1//EN" "http://www.w3.org/Graphics/SVG/1.1/DTD/svg11.dtd"><svg t="1710002242724" class="icon" viewBox="0 0 1024 1024" version="1.1" xmlns="http://www.w3.org/2000/svg" p-id="15668" xmlns:xlink="http://www.w3.org/1999/xlink" width="300" height="300"><path d="M36.906667 173.354667c0-33.28 26.922667-60.202667 60.16-60.202667h829.824c33.28 0 60.16 26.965333 60.16 60.16v677.333333a60.16 60.16 0 0 1-60.16 60.202667H97.109333a60.16 60.16 0 0 1-60.202666-60.16V173.312z" fill="#0092DF" p-id="15669"></path><path d="M36.906667 173.354667c0-33.28 26.922667-60.202667 60.16-60.202667h829.824c33.28 0 60.16 26.965333 60.16 60.16v92.373333H36.906667V173.354667z" fill="#515151" p-id="15670" data-spm-anchor-id="a313x.search_index.0.i9.5f823a81MLfcqe" class="selected"></path><path d="M185.258667 189.44a31.445333 31.445333 0 1 1-62.848 0 31.445333 31.445333 0 0 1 62.848 0zM308.736 189.44a31.445333 31.445333 0 1 1-62.848 0 31.445333 31.445333 0 0 1 62.848 0z" fill="#0092DF" p-id="15671"></path><path d="M168.362667 485.077333c0-16.64 13.482667-30.08 30.122666-30.08h626.986667a30.08 30.08 0 1 1 0 60.16H198.485333a30.08 30.08 0 0 1-30.122666-30.08zM258.133333 748.373333c0-16.64 13.44-30.122667 30.08-30.122666h447.573334a30.08 30.08 0 1 1 0 60.16H288.256a30.08 30.08 0 0 1-30.122667-30.08z" fill="#EAF5FD" p-id="15672"></path></svg>