<?xml version="1.0" standalone="no"?><!DOCTYPE svg PUBLIC "-//W3C//DTD SVG 1.1//EN" "http://www.w3.org/Graphics/SVG/1.1/DTD/svg11.dtd"><svg t="1709625522732" class="icon" viewBox="0 0 1024 1024" version="1.1" xmlns="http://www.w3.org/2000/svg" p-id="38129" xmlns:xlink="http://www.w3.org/1999/xlink" width="300" height="300"><path d="M516.452174 17.808696C244.869565 17.808696 26.713043 235.965217 26.713043 507.547826s218.156522 489.73913 489.739131 489.739131 489.73913-218.156522 489.73913-489.739131-222.608696-489.73913-489.73913-489.73913z" fill="#1296db" p-id="38130" data-spm-anchor-id="a313x.search_index.0.i74.33c63a81eW7dFq" class="selected"></path><path d="M761.321739 264.859826l-2.359652-2.31513A136.681739 136.681739 0 0 0 662.305391 222.608696a136.681739 136.681739 0 0 0-96.701217 39.891478L442.368 385.78087a137.126957 137.126957 0 0 0 0 193.446956l2.31513 2.226087c4.407652 4.407652 9.126957 8.414609 13.935305 12.154435l45.145043-45.145044a73.015652 73.015652 0 0 1-26.178782-26.089739l9.082434 12.510609a74.128696 74.128696 0 0 1 0-104.715131l123.325218-123.236173a74.039652 74.039652 0 0 1 104.71513 0l2.315131 2.226087a74.128696 74.128696 0 0 1 0 104.759652l-55.785739 55.741217c9.661217 23.908174 14.246957 49.374609 13.84626 74.796522l86.194087-86.238609a136.681739 136.681739 0 0 0 39.936-96.701217 136.681739 136.681739 0 0 0-39.936-96.745739v0.089043z m-182.093913 177.508174a136.236522 136.236522 0 0 0-52.001391-32.278261l-7.123478 65.26887c5.342609 3.116522 10.329043 6.811826 14.781217 11.308521l2.31513 2.315131c28.93913 28.850087 28.93913 75.820522 0 104.759652l-123.236174 123.236174a74.128696 74.128696 0 0 1-104.71513 0l-2.31513-2.31513a74.039652 74.039652 0 0 1 0-104.715131l55.696695-55.741217a187.65913 187.65913 0 0 1-13.801739-74.974609l-86.28313 86.372174a137.126957 137.126957 0 0 0 0 193.446956l2.31513 2.315131a137.126957 137.126957 0 0 0 193.357913 0l123.236174-123.280696a136.859826 136.859826 0 0 0 39.846957-96.701217c0-37.709913-15.226435-71.902609-39.846957-96.701218l-2.31513-2.31513h0.133565z" fill="#cdcdcd" p-id="38131" data-spm-anchor-id="a313x.search_index.0.i75.33c63a81eW7dFq" class=""></path></svg>