<?xml version="1.0" standalone="no"?><!DOCTYPE svg PUBLIC "-//W3C//DTD SVG 1.1//EN" "http://www.w3.org/Graphics/SVG/1.1/DTD/svg11.dtd"><svg t="1709898363653" class="icon" viewBox="0 0 1024 1024" version="1.1" xmlns="http://www.w3.org/2000/svg" p-id="6956" width="250" height="250" xmlns:xlink="http://www.w3.org/1999/xlink"><path d="M1010.992 474.558h-55.764v-16.32h47.604v-35.476L648.576 147.766H386.446l-93.214 72.362a8.16 8.16 0 0 1-13.164-6.444V16.32H126.772v329.03c0 2.536-1.18 4.93-3.192 6.474l-102.41 78.564v27.85h48.926v16.32H13.008a8.162 8.162 0 0 1-8.16-8.16v-40.034c0-2.536 1.18-4.93 3.192-6.474l102.41-78.564V8.16A8.16 8.16 0 0 1 118.61 0h169.616a8.162 8.162 0 0 1 8.16 8.16v188.86l82.26-63.858a8.16 8.16 0 0 1 5.004-1.714h267.718a8.16 8.16 0 0 1 5.004 1.714l359.62 279.158a8.154 8.154 0 0 1 3.156 6.446v47.632a8.156 8.156 0 0 1-8.156 8.16z" fill="#4A555F" p-id="6957"></path><path d="M261.03 231.658V35.358H145.812v285.834z" fill="#F58E6F" p-id="6958"></path><path d="M926.318 1024H636.784a8.162 8.162 0 0 1-8.16-8.16V682.63H397.14V1015.84a8.16 8.16 0 0 1-8.16 8.16H104.38a8.162 8.162 0 0 1-8.16-8.16V412.348c0-2.524 1.168-4.904 3.16-6.45L394.462 177.304a8.168 8.168 0 0 1 4.998-1.71h231.78c1.812 0 3.564 0.602 4.998 1.71l295.076 228.594a8.168 8.168 0 0 1 3.16 6.45V1015.84a8.154 8.154 0 0 1-8.156 8.16z m-281.376-16.32H918.16V416.348L628.454 191.914H402.25L112.54 416.348V1007.68h268.28V674.47a8.16 8.16 0 0 1 8.16-8.16h247.802a8.162 8.162 0 0 1 8.16 8.16V1007.68z" fill="#4A555F" p-id="6959"></path><path d="M621.914 210.946H408.784L131.572 425.708v562.91h230.212V647.272h302.18v341.346h235.162V425.708L621.914 210.946z m-106.564 328.998c-58.968 0-106.782-47.816-106.782-106.782 0-58.968 47.816-106.786 106.782-106.786s106.784 47.816 106.784 106.786c-0.002 58.966-47.818 106.782-106.784 106.782z" fill="#1296db" p-id="6960" data-spm-anchor-id="a313x.search_index.0.i0.44fa3a81BrSnmj" class="selected"></path><path d="M515.35 548.098c-63.376 0-114.932-51.558-114.932-114.932 0-63.372 51.556-114.932 114.932-114.932s114.936 51.558 114.936 114.932c0 63.372-51.56 114.932-114.936 114.932z m0-213.546c-54.376 0-98.612 44.236-98.612 98.612s44.236 98.614 98.612 98.614 98.618-44.238 98.618-98.614-44.242-98.612-98.618-98.612z" fill="#4A555F" p-id="6961"></path><path d="M515.352 512.738c-43.874 0-79.572-35.698-79.572-79.574s35.698-79.572 79.572-79.572 79.572 35.696 79.572 79.572-35.698 79.574-79.572 79.574z" fill="#FFD452" p-id="6962"></path><path d="M507.19 326.392h16.32v213.544h-16.32z" fill="#4A555F" p-id="6963"></path><path d="M408.578 425.004h213.544v16.32H408.578zM13.008 1007.672H104.38v16.32H13.008zM926.318 1007.672h91.376v16.32h-91.376z" fill="#4A555F" p-id="6964"></path></svg>