<?xml version="1.0" standalone="no"?><!DOCTYPE svg PUBLIC "-//W3C//DTD SVG 1.1//EN" "http://www.w3.org/Graphics/SVG/1.1/DTD/svg11.dtd"><svg t="1709626456527" class="icon" viewBox="0 0 1024 1024" version="1.1" xmlns="http://www.w3.org/2000/svg" p-id="70286" xmlns:xlink="http://www.w3.org/1999/xlink" width="300" height="300"><path d="M384 102.4c134.3104 0 243.2 108.8896 243.2 243.2 0 89.1776-48 167.1552-119.5776 209.4848C651.3152 601.728 755.2 736.7424 755.2 896a38.4 38.4 0 0 1-36.1472 38.336L716.8 934.4H76.8a38.4 38.4 0 0 1-38.4-38.4c0-153.3824 96.3584-284.2624 231.8336-335.4112C193.2416 519.7824 140.8 438.8224 140.8 345.6c0-134.3104 108.8896-243.2 243.2-243.2z" fill="#6B57FE" p-id="70287"></path><path d="M697.6 102.4C821.312 102.4 921.6 202.688 921.6 326.4c0 85.3504-47.744 159.552-117.9648 197.3632C925.3632 573.5936 1011.2 693.9392 1011.2 834.4832a35.8144 35.8144 0 0 1-33.4848 35.84l-2.176 0.0768H831.2576c-7.936-136-78.784-257.536-186.752-332.3264l-3.2-2.1888 1.2672-1.7024A319.3728 319.3728 0 0 0 704 345.6a318.9888 318.9888 0 0 0-93.2096-225.7536A223.1552 223.1552 0 0 1 697.6 102.4z" fill="#FFBA00" p-id="70288"></path></svg>